<svg width="117" height="127" viewBox="0 0 117 127" fill="none" xmlns="http://www.w3.org/2000/svg">
<path d="M34.9624 39.2246C34.1365 39.7732 33.5859 40.8704 33.5859 41.9676C33.5859 43.8877 35.2376 45.5335 37.1647 45.5335C37.7153 46.0821 38.2659 46.6307 38.8165 46.905L52.3059 54.5853C52.3059 54.5853 52.5812 54.5853 52.8565 54.5853C52.8565 56.5054 54.5082 58.1512 56.4353 58.1512C58.3624 58.1512 60.0141 56.5054 60.0141 54.5853C60.0141 54.5853 60.5647 54.5853 60.84 54.311L74.3294 46.6307C75.1553 46.0821 75.7059 45.5335 76.2565 44.9849C76.5318 44.9849 76.8071 44.9849 77.3576 44.9849C79.2847 44.9849 80.9365 43.3391 80.9365 41.419C80.9365 39.4989 79.8353 38.676 78.4588 38.1274V23.5896C79.8353 23.041 80.9365 21.9438 80.9365 20.2981C80.9365 18.6523 79.2847 16.7322 77.3576 16.7322C75.4306 16.7322 75.9812 17.0065 75.4306 17.2808C75.1553 17.2808 74.88 16.7322 74.3294 16.4579L60.84 8.77754C60.2894 8.50324 59.7388 8.22894 59.1882 7.95464C58.6376 6.58315 57.5365 5.76026 55.8847 5.76026C54.2329 5.76026 52.8565 7.13175 52.5812 8.50324L39.0918 16.1836C39.0918 16.1836 38.8165 16.1836 38.5412 16.4579C37.9906 16.4579 37.7153 16.1836 37.1647 16.1836C35.2376 16.1836 33.5859 17.8294 33.5859 19.7495C33.5859 21.6695 34.1365 21.9438 34.9624 22.4924C34.9624 22.7667 34.9624 23.041 34.9624 23.3153V38.4017V39.2246ZM53.9576 12.6177C54.5082 13.1663 55.3341 13.4406 56.16 13.4406C56.9859 13.4406 58.0871 12.892 58.9129 12.0691C58.9129 12.0691 59.1882 12.0691 59.4635 12.0691L72.9529 19.7495C73.5035 20.0238 74.0541 20.5724 74.3294 21.121C74.3294 21.6695 74.6047 22.2181 75.1553 22.4924C75.1553 22.7667 75.1553 23.3153 75.1553 23.8639V39.2246C74.6047 39.7732 74.0541 40.8704 74.0541 41.6933C74.0541 42.5162 74.0541 41.9676 74.0541 42.2419C73.7788 42.7905 73.2282 43.0648 72.6776 43.6134L59.1882 51.2937C59.1882 51.2937 58.6376 51.2937 58.3624 51.568C57.8118 51.568 57.2612 51.2937 56.7106 51.2937C56.16 51.2937 55.6094 51.2937 55.3341 51.568C55.3341 51.568 54.7835 51.568 54.5082 51.2937L41.0188 43.6134C41.0188 43.6134 40.7435 43.6134 40.4682 43.3391C40.4682 42.7905 40.7435 42.5162 40.7435 41.9676C40.7435 40.5961 39.9176 39.2246 38.5412 38.676V24.1382C38.5412 24.1382 38.5412 24.1382 38.5412 23.8639C39.6424 23.3153 40.7435 22.2181 40.7435 20.5724C40.7435 18.9266 40.7435 20.5724 40.7435 20.2981L53.6824 12.892L53.9576 12.6177ZM43.7718 35.933V27.7041C43.7718 25.784 44.8729 23.8639 46.5247 23.041L53.6824 18.9266C55.3341 17.8294 57.5365 17.8294 59.1882 18.9266L66.3459 23.041C67.9977 24.1382 69.0988 25.784 69.0988 27.7041V35.933C69.0988 37.8531 67.9977 39.7732 66.3459 40.5961L59.1882 44.7106C57.5365 45.8078 55.3341 45.8078 53.6824 44.7106L46.5247 40.5961C44.8729 39.4989 43.7718 37.8531 43.7718 35.933ZM96.6282 8.22894L82.5882 4.11447L83.6894 0.274298L97.7294 4.38877C100.207 5.21166 102.134 7.13175 102.685 9.60043C103.235 12.892 104.336 25.2354 97.7294 41.419L96.9035 43.3391L93.0494 41.6933L93.8753 39.7732C100.207 24.6868 99.1059 13.4406 98.5553 10.149C98.5553 9.05184 97.4541 8.50324 96.6282 8.22894ZM29.4565 0L30.5576 3.84017L16.5176 7.95464C15.6918 7.95464 14.5906 8.77754 14.5906 9.87473C14.04 12.892 12.9388 24.4125 19.2706 39.4989L20.0965 41.419L16.2424 43.0648L15.4165 41.1447C8.53412 24.9611 9.91059 12.892 10.4612 9.32613C10.7365 6.85745 12.6635 4.66307 15.4165 4.11447L29.4565 0ZM76.5318 66.1058L79.2847 69.1231L77.6329 70.4946C75.1553 72.689 62.4918 83.6609 57.2612 83.6609C52.0306 83.6609 37.9906 72.689 35.2376 70.4946L33.5859 69.1231L36.0635 65.8315L37.7153 67.203C46.2494 74.0605 54.7835 79.2721 56.9859 79.2721C59.1882 79.2721 67.1718 73.7862 74.6047 67.203L76.2565 65.8315L76.5318 66.1058ZM0 106.153H2.47765V126.177H0V106.153ZM18.1694 113.559C18.72 114.382 18.72 115.479 18.72 116.851V126.451H16.5176V117.125C16.5176 116.028 16.2424 114.931 15.6918 114.382C15.1412 113.834 14.3153 113.285 13.2141 113.285C12.1129 113.285 11.8376 113.285 11.2871 113.834C10.7365 114.108 10.1859 114.657 9.91059 115.205C9.63529 115.754 9.36 116.577 9.36 117.4V126.451H7.15765V111.365H9.36V113.834C9.63529 113.011 10.1859 112.462 11.0118 111.914C11.8376 111.365 12.6635 111.091 13.7647 111.091C14.8659 111.091 15.6918 111.091 16.5176 111.639C17.3435 111.914 17.8941 112.737 18.1694 113.559ZM39.9176 111.091H40.4682V113.559C40.4682 113.559 40.4682 113.559 39.9176 113.559C39.9176 113.559 39.3671 113.559 39.0918 113.559C38.2659 113.559 37.7153 113.559 37.1647 114.108C36.6141 114.382 36.0635 114.931 35.7882 115.479C35.5129 116.028 35.2376 116.577 35.2376 117.4V127H33.0353V111.914H35.2376V114.108C35.2376 113.285 36.0635 112.737 36.6141 112.188C37.44 111.639 38.2659 111.365 39.0918 111.365C39.9176 111.365 39.3671 111.365 39.6424 111.365L39.9176 111.091ZM91.3976 112.188H93.6V114.931H91.3976V120.965C91.3976 122.063 91.3977 122.886 91.9482 123.434H93.6V126.177H89.7459C88.6447 125.354 88.0941 124.257 88.0941 123.16C88.0941 122.337 88.0941 121.24 88.0941 119.868V114.931H86.1671V112.188H88.0941V108.348H91.6729V112.188H91.3976ZM98.28 112.188H104.061V114.931H99.9318C99.1059 115.754 98.5553 117.125 98.5553 119.045C98.5553 120.965 98.5553 120.691 98.8306 121.514C98.8306 122.337 99.3812 122.886 99.9318 123.434H104.061V126.177H98.0047C95.8023 124.531 94.7012 122.063 94.7012 119.045C94.7012 116.028 95.8024 113.834 98.28 112.188ZM117 119.045V126.177H113.421V118.771C113.421 117.125 113.421 115.754 112.595 114.931H109.567V126.177H105.988V106.976H109.567V113.011C109.842 112.737 110.393 112.462 110.668 112.188C110.944 112.188 111.494 112.188 112.32 112.188H114.798C115.624 113.285 116.174 114.108 116.449 115.205C116.725 116.302 117 117.4 117 119.045ZM70.4753 106.976H74.0541L71.3012 126.177H67.4471L65.52 114.931L63.5929 126.177H59.7388L56.9859 106.976H60.5647L61.3906 112.737L61.9412 119.045L63.0424 112.737L63.8682 106.976H66.8965L67.7224 112.737L68.8235 119.045L69.3741 112.737L70.2 106.976H70.4753ZM52.3059 111.914C51.7553 111.639 51.2047 111.365 50.3788 111.091C49.8282 111.091 49.2776 111.091 48.7271 111.091C47.9012 111.091 47.0753 111.091 46.5247 111.365C45.6988 111.365 45.1482 111.914 44.3224 112.462C43.7718 113.011 43.2212 113.559 42.6706 114.657L44.8729 115.479C44.8729 114.931 45.6988 114.382 46.2494 113.834C46.8 113.285 47.6259 113.011 48.7271 113.011C49.8282 113.011 50.6541 113.011 51.2047 113.834C51.7553 114.382 52.0306 115.205 52.0306 116.028C52.0306 116.577 52.0306 116.851 51.7553 116.851C51.7553 116.851 51.2047 116.851 50.3788 117.125C49.8282 117.125 49.0024 117.125 48.1765 117.125C47.3506 117.125 46.8 117.125 45.9741 117.4C45.4235 117.4 44.5976 117.674 44.0471 117.948C43.4965 118.222 42.9459 118.771 42.6706 119.32C42.3953 119.868 42.12 120.417 42.12 121.514C42.12 122.611 42.12 123.434 42.6706 123.983C43.2212 124.531 43.7718 125.08 44.5976 125.629C45.4235 125.903 46.2494 126.177 47.0753 126.177C47.9012 126.177 48.7271 126.177 49.2776 125.903C49.8282 125.903 50.3788 125.354 50.6541 125.08C50.9294 124.806 51.2047 124.257 51.48 123.983V125.903H53.6824V116.028C53.6824 114.931 53.6824 113.834 53.1318 113.285C52.8565 112.462 52.3059 111.914 51.7553 111.639L52.3059 111.914ZM52.3059 120.691C52.3059 121.24 52.3059 121.788 51.7553 122.337C51.48 122.886 50.9294 123.434 50.3788 123.708C49.8282 123.983 49.0024 124.257 48.1765 124.257C47.3506 124.257 46.5247 124.257 45.9741 123.708C45.4235 123.434 45.1482 122.611 45.1482 121.788C45.1482 120.965 45.1482 120.691 45.6988 120.417C45.9741 120.143 46.5247 119.868 47.0753 119.594C47.6259 119.594 48.1765 119.32 48.7271 119.32C48.7271 119.32 49.2776 119.32 49.8282 119.32C50.1035 119.32 50.6541 119.32 51.2047 119.32C51.7553 119.32 52.0306 119.32 52.3059 119.32C52.5812 119.32 52.8565 119.32 52.8565 119.045V121.24L52.3059 120.691ZM29.7318 105.33C30.0071 105.33 30.2824 105.33 30.5576 105.33L30.0071 107.251C30.0071 107.251 29.7318 107.251 29.4565 107.251C29.4565 107.251 28.9059 107.251 28.6306 107.251C27.8047 107.251 27.2541 107.251 26.9788 107.799C26.7035 108.073 26.4282 108.622 26.4282 109.445V111.091H29.7318V113.011H26.4282V125.903H24.2259V113.011H21.7482V111.091H24.2259V108.896C24.2259 108.073 24.2259 107.251 24.7765 106.702C25.0518 106.153 25.6024 105.605 26.4282 105.33C26.9788 105.056 27.8047 104.782 28.3553 104.782C28.9059 104.782 29.4565 104.782 29.7318 104.782V105.33ZM84.7906 117.948C84.7906 116.577 84.7906 115.205 84.24 114.382C83.9647 113.559 83.1388 112.737 82.0376 112.188H75.1553V114.931H80.1106C80.6612 114.931 80.9365 115.754 80.9365 116.302V117.674C80.3859 117.125 79.56 117.125 79.0094 117.125H76.5318C74.88 118.222 74.0541 119.868 74.0541 121.788C74.0541 123.708 74.88 125.08 76.2565 126.177H77.9082C79.2847 126.177 80.1106 125.903 80.9365 125.08L81.4871 126.177H84.5153C84.5153 124.806 84.5153 123.434 84.5153 122.063V117.948H84.7906ZM81.2118 123.434H78.1835C77.9082 123.16 77.6329 122.337 77.6329 121.788C77.6329 121.24 77.6329 120.417 78.1835 119.868H81.2118V123.434Z" fill="#3C2E6C"/>
</svg>
