<svg width="65" height="59" viewBox="0 0 65 59" fill="none" xmlns="http://www.w3.org/2000/svg">
<path d="M17.4415 27.6623C16.8652 28.0492 16.4809 28.823 16.4809 29.5967C16.4809 30.9508 17.6336 32.1115 18.9784 32.1115C19.3626 32.4984 19.7468 32.8852 20.1311 33.0787L29.5446 38.4951C29.5446 38.4951 29.7367 38.4951 29.9288 38.4951C29.9288 39.8492 31.0815 41.0098 32.4263 41.0098C33.771 41.0098 34.9237 39.8492 34.9237 38.4951C34.9237 38.4951 35.308 38.4951 35.5001 38.3016L44.9136 32.8852C45.4899 32.4984 45.8741 32.1115 46.2584 31.7246C46.4505 31.7246 46.6426 31.7246 47.0268 31.7246C48.3716 31.7246 49.5243 30.5639 49.5243 29.2098C49.5243 27.8557 48.7558 27.2754 47.7953 26.8885V16.6361C48.7558 16.2492 49.5243 15.4754 49.5243 14.3148C49.5243 13.1541 48.3716 11.8 47.0268 11.8C45.682 11.8 46.0662 11.9934 45.682 12.1869C45.4899 12.1869 45.2978 11.8 44.9136 11.6066L35.5001 6.19016C35.1158 5.99672 34.7316 5.80328 34.3474 5.60984C33.9632 4.64262 33.1947 4.06229 32.042 4.06229C30.8894 4.06229 29.9288 5.02951 29.7367 5.99672L20.3232 11.4131C20.3232 11.4131 20.1311 11.4131 19.939 11.6066C19.5547 11.6066 19.3626 11.4131 18.9784 11.4131C17.6336 11.4131 16.4809 12.5738 16.4809 13.9279C16.4809 15.282 16.8652 15.4754 17.4415 15.8623C17.4415 16.0557 17.4415 16.2492 17.4415 16.4426V27.082V27.6623ZM30.6973 8.89836C31.0815 9.28524 31.6578 9.47869 32.2341 9.47869C32.8105 9.47869 33.5789 9.0918 34.1553 8.51147C34.1553 8.51147 34.3474 8.51147 34.5395 8.51147L43.953 13.9279C44.3372 14.1213 44.7215 14.5082 44.9136 14.8951C44.9136 15.282 45.1057 15.6689 45.4899 15.8623C45.4899 16.0557 45.4899 16.4426 45.4899 16.8295V27.6623C45.1057 28.0492 44.7215 28.8229 44.7215 29.4033C44.7215 29.9836 44.7215 29.5967 44.7215 29.7902C44.5294 30.177 44.1451 30.3705 43.7609 30.7574L34.3474 36.1738C34.3474 36.1738 33.9632 36.1738 33.7711 36.3672C33.3868 36.3672 33.0026 36.1738 32.6184 36.1738C32.2341 36.1738 31.8499 36.1738 31.6578 36.3672C31.6578 36.3672 31.2736 36.3672 31.0815 36.1738L21.668 30.7574C21.668 30.7574 21.4759 30.7574 21.2837 30.5639C21.2837 30.177 21.4759 29.9836 21.4759 29.5967C21.4759 28.6295 20.8995 27.6623 19.939 27.2754V17.0229C19.939 17.0229 19.939 17.0229 19.939 16.8295C20.7074 16.4426 21.4759 15.6689 21.4759 14.5082C21.4759 13.3475 21.4759 14.5082 21.4759 14.3148L30.5051 9.0918L30.6973 8.89836ZM23.5891 25.341V19.5377C23.5891 18.1836 24.3575 16.8295 25.5102 16.2492L30.5051 13.3475C31.6578 12.5738 33.1947 12.5738 34.3474 13.3475L39.3423 16.2492C40.495 17.0229 41.2634 18.1836 41.2634 19.5377V25.341C41.2634 26.6951 40.495 28.0492 39.3423 28.6295L34.3474 31.5311C33.1947 32.3049 31.6578 32.3049 30.5051 31.5311L25.5102 28.6295C24.3575 27.8557 23.5891 26.6951 23.5891 25.341ZM60.4747 5.80328L50.6769 2.90164L51.4454 0.193443L61.2431 3.09508C62.9721 3.67541 64.3169 5.02951 64.7012 6.77049C65.0854 9.0918 65.8538 17.7967 61.2431 29.2098L60.6668 30.5639L57.9772 29.4033L58.5536 28.0492C62.9721 17.4098 62.2037 9.47869 61.8195 7.15738C61.8195 6.38361 61.051 5.99672 60.4747 5.80328ZM13.5992 0L14.3677 2.7082L4.56995 5.60984C3.99362 5.60984 3.22517 6.19016 3.22517 6.96393C2.84094 9.0918 2.07249 17.2164 6.49108 27.8557L7.06742 29.2098L4.37784 30.3705L3.8015 29.0164C-1.00131 17.6033 -0.0407444 9.0918 0.343481 6.57705C0.535593 4.83607 1.88038 3.28852 3.8015 2.90164L13.5992 0ZM46.4505 46.6197L48.3716 48.7475L47.2189 49.7148C45.4899 51.2623 36.6527 59 33.0026 59C29.3525 59 19.5547 51.2623 17.6336 49.7148L16.4809 48.7475L18.2099 46.4262L19.3626 47.3934C25.3181 52.2295 31.2736 55.9049 32.8105 55.9049C34.3474 55.9049 39.9187 52.0361 45.1057 47.3934L46.2584 46.4262L46.4505 46.6197Z" fill="#3C2E6C"/>
</svg>
